<mxfile host="app.diagrams.net" modified="2023-04-24T08:17:18.811Z" agent="5.0 (X11; Linux x86_64) AppleWebKit/537.36 (KHTML, like Gecko) Chrome/111.0.0.0 Safari/537.36" etag="7if2oq3p2ed9XeeQA-5k" version="21.0.2" type="github">
  <diagram name="第 1 页" id="87JIaRfPC5aO63aW0v4Z">
    <mxGraphModel dx="700" dy="992" grid="1" gridSize="10" guides="1" tooltips="1" connect="1" arrows="1" fold="1" page="1" pageScale="1" pageWidth="827" pageHeight="1169" math="0" shadow="0">
      <root>
        <mxCell id="0" />
        <mxCell id="1" parent="0" />
        <mxCell id="CtQr43Fwbx3dNzLd9Wr6-7" value="" style="rounded=1;whiteSpace=wrap;html=1;fillColor=#d5e8d4;strokeColor=#82b366;" vertex="1" parent="1">
          <mxGeometry x="310.5" y="275" width="370" height="90" as="geometry" />
        </mxCell>
        <mxCell id="CtQr43Fwbx3dNzLd9Wr6-5" value="" style="rounded=1;whiteSpace=wrap;html=1;fillColor=#fff2cc;strokeColor=#d6b656;" vertex="1" parent="1">
          <mxGeometry x="379" y="150" width="224" height="55" as="geometry" />
        </mxCell>
        <mxCell id="CtQr43Fwbx3dNzLd9Wr6-3" value="&lt;font style=&quot;font-size: 18px;&quot;&gt;声音分类任务训练&lt;/font&gt;" style="text;html=1;strokeColor=none;fillColor=none;align=center;verticalAlign=middle;whiteSpace=wrap;rounded=0;" vertex="1" parent="1">
          <mxGeometry x="415" y="163" width="160" height="30" as="geometry" />
        </mxCell>
        <mxCell id="CtQr43Fwbx3dNzLd9Wr6-6" value="&lt;font style=&quot;font-size: 18px;&quot;&gt;隐私保护噪声管理器&lt;/font&gt;" style="text;html=1;strokeColor=none;fillColor=none;align=center;verticalAlign=middle;whiteSpace=wrap;rounded=0;" vertex="1" parent="1">
          <mxGeometry x="380" y="285" width="231" height="30" as="geometry" />
        </mxCell>
        <mxCell id="CtQr43Fwbx3dNzLd9Wr6-9" value="&lt;font style=&quot;font-size: 18px;&quot;&gt;AWGN&lt;/font&gt;" style="text;html=1;strokeColor=#6c8ebf;fillColor=#dae8fc;align=center;verticalAlign=middle;whiteSpace=wrap;rounded=0;" vertex="1" parent="1">
          <mxGeometry x="360" y="320" width="60" height="30" as="geometry" />
        </mxCell>
        <mxCell id="CtQr43Fwbx3dNzLd9Wr6-10" value="&lt;font style=&quot;font-size: 18px;&quot;&gt;自适应噪声&lt;/font&gt;" style="text;html=1;strokeColor=#6c8ebf;fillColor=#dae8fc;align=center;verticalAlign=middle;whiteSpace=wrap;rounded=0;" vertex="1" parent="1">
          <mxGeometry x="540" y="320" width="100" height="30" as="geometry" />
        </mxCell>
        <mxCell id="CtQr43Fwbx3dNzLd9Wr6-11" value="" style="rounded=1;whiteSpace=wrap;html=1;fillColor=#d5e8d4;strokeColor=#82b366;" vertex="1" parent="1">
          <mxGeometry x="310.5" y="443" width="370" height="90" as="geometry" />
        </mxCell>
        <mxCell id="CtQr43Fwbx3dNzLd9Wr6-12" value="&lt;font style=&quot;font-size: 18px;&quot;&gt;平均划分&lt;/font&gt;" style="text;html=1;strokeColor=#6c8ebf;fillColor=#dae8fc;align=center;verticalAlign=middle;whiteSpace=wrap;rounded=0;" vertex="1" parent="1">
          <mxGeometry x="346" y="488" width="80" height="30" as="geometry" />
        </mxCell>
        <mxCell id="CtQr43Fwbx3dNzLd9Wr6-13" value="&lt;font style=&quot;font-size: 18px;&quot;&gt;自然划分&lt;/font&gt;" style="text;html=1;strokeColor=#6c8ebf;fillColor=#dae8fc;align=center;verticalAlign=middle;whiteSpace=wrap;rounded=0;" vertex="1" parent="1">
          <mxGeometry x="438" y="488" width="100" height="30" as="geometry" />
        </mxCell>
        <mxCell id="CtQr43Fwbx3dNzLd9Wr6-14" value="&lt;font style=&quot;font-size: 18px;&quot;&gt;数据集划分&lt;/font&gt;" style="text;html=1;strokeColor=none;fillColor=none;align=center;verticalAlign=middle;whiteSpace=wrap;rounded=0;" vertex="1" parent="1">
          <mxGeometry x="378.5" y="458" width="231" height="30" as="geometry" />
        </mxCell>
        <mxCell id="CtQr43Fwbx3dNzLd9Wr6-15" value="" style="shape=flexArrow;endArrow=classic;html=1;rounded=0;" edge="1" parent="1">
          <mxGeometry width="50" height="50" relative="1" as="geometry">
            <mxPoint x="480" y="385" as="sourcePoint" />
            <mxPoint x="480" y="425" as="targetPoint" />
          </mxGeometry>
        </mxCell>
        <mxCell id="CtQr43Fwbx3dNzLd9Wr6-16" value="&lt;font style=&quot;font-size: 18px;&quot;&gt;Dirichlet划分&lt;/font&gt;" style="text;html=1;strokeColor=#6c8ebf;fillColor=#dae8fc;align=center;verticalAlign=middle;whiteSpace=wrap;rounded=0;" vertex="1" parent="1">
          <mxGeometry x="546" y="488" width="100" height="30" as="geometry" />
        </mxCell>
        <mxCell id="CtQr43Fwbx3dNzLd9Wr6-17" value="" style="shape=flexArrow;endArrow=classic;html=1;rounded=0;" edge="1" parent="1">
          <mxGeometry width="50" height="50" relative="1" as="geometry">
            <mxPoint x="481" y="215" as="sourcePoint" />
            <mxPoint x="481" y="255" as="targetPoint" />
          </mxGeometry>
        </mxCell>
        <mxCell id="CtQr43Fwbx3dNzLd9Wr6-18" value="" style="rounded=1;whiteSpace=wrap;html=1;fillColor=#d5e8d4;strokeColor=#82b366;" vertex="1" parent="1">
          <mxGeometry x="308.5" y="608" width="370" height="90" as="geometry" />
        </mxCell>
        <mxCell id="CtQr43Fwbx3dNzLd9Wr6-19" value="&lt;font style=&quot;font-size: 18px;&quot;&gt;联邦学习框架&lt;/font&gt;" style="text;html=1;strokeColor=none;fillColor=none;align=center;verticalAlign=middle;whiteSpace=wrap;rounded=0;" vertex="1" parent="1">
          <mxGeometry x="375.5" y="616" width="231" height="30" as="geometry" />
        </mxCell>
      </root>
    </mxGraphModel>
  </diagram>
</mxfile>
